<svg width="494" height="72" viewBox="0 0 494 72" fill="none" xmlns="http://www.w3.org/2000/svg">
<g clip-path="url(#clip0_518_8)">
<path d="M22.4118 59.088C19.2118 59.088 16.3744 58.512 13.8998 57.36C11.4678 56.208 9.54775 54.3947 8.13975 51.92C6.77442 49.4027 6.09175 46.096 6.09175 42V35.088C6.09175 32.6987 6.09175 30.288 6.09175 27.856C6.09175 25.424 6.07042 22.9707 6.02775 20.496C6.02775 18.832 5.23842 17.7867 3.65975 17.36L2.25175 17.04V15.696H19.5318V17.04L17.7397 17.424C16.1184 17.808 15.3078 18.8747 15.3078 20.624C15.2651 23.0133 15.2438 25.424 15.2438 27.856C15.2438 30.2453 15.2438 32.656 15.2438 35.088V43.216C15.2438 47.3547 16.0758 50.3413 17.7397 52.176C19.4464 54.0107 21.8571 54.928 24.9718 54.928C28.2571 54.928 30.8171 53.9467 32.6518 51.984C34.5291 49.9787 35.4678 47.0133 35.4678 43.088V20.816C35.4678 19.9627 35.2971 19.216 34.9558 18.576C34.6144 17.936 34.0171 17.5307 33.1637 17.36L31.6278 17.04V15.696H41.4838V17.04L39.6918 17.424C38.8811 17.5947 38.3264 17.9787 38.0278 18.576C37.7291 19.1733 37.5798 19.8987 37.5798 20.752V42.704C37.5798 47.9947 36.1931 52.048 33.4198 54.864C30.6464 57.68 26.9771 59.088 22.4118 59.088ZM42.2503 58V56.784L43.2743 56.528C44.6823 56.1013 45.3863 55.056 45.3863 53.392V34.512C45.3436 33.616 45.1943 32.9333 44.9383 32.464C44.6823 31.952 44.1276 31.6107 43.2743 31.44L42.2503 31.184V30.032L52.6183 26.32L53.3863 27.024L53.8343 30.992C55.3703 29.6267 57.0769 28.5173 58.9543 27.664C60.8743 26.768 62.7516 26.32 64.5863 26.32C67.4023 26.32 69.5569 27.088 71.0503 28.624C72.5863 30.16 73.3543 32.5067 73.3543 35.664V53.456C73.3543 55.12 74.1223 56.1653 75.6583 56.592L76.3623 56.784V58H61.6423V56.784L62.6023 56.528C64.0103 56.0587 64.7143 55.0133 64.7143 53.392V34.384C64.7143 32.8907 64.3943 31.8027 63.7543 31.12C63.1143 30.4373 62.0476 30.096 60.5543 30.096C58.4636 30.096 56.2876 31.0133 54.0263 32.848V53.456C54.0263 55.12 54.7729 56.1653 56.2663 56.592L56.9062 56.784V58H42.2503ZM94.6803 58.896C91.7789 58.896 89.1549 58.2773 86.8083 57.04C84.4616 55.76 82.6056 53.9253 81.2403 51.536C79.9176 49.104 79.2563 46.16 79.2563 42.704C79.2563 39.248 80.0029 36.304 81.4963 33.872C82.9896 31.44 84.9736 29.584 87.4483 28.304C89.9656 26.9813 92.7176 26.32 95.7043 26.32C98.1363 26.32 100.206 26.7253 101.912 27.536C103.619 28.3467 104.92 29.392 105.816 30.672C106.712 31.9093 107.16 33.232 107.16 34.64C107.16 35.8347 106.798 36.752 106.072 37.392C105.39 38.032 104.494 38.352 103.384 38.352C102.19 38.352 101.208 37.9253 100.44 37.072C99.7149 36.2187 99.2883 35.1307 99.1603 33.808C99.1176 32.9547 99.1176 32.2293 99.1603 31.632C99.2456 31.0347 99.2456 30.4587 99.1603 29.904C98.9896 29.1787 98.6909 28.688 98.2643 28.432C97.8803 28.176 97.3256 28.048 96.6003 28.048C93.9123 28.048 91.8429 29.136 90.3923 31.312C88.9843 33.4453 88.2803 36.9227 88.2803 41.744C88.2803 45.8827 89.0696 49.0613 90.6483 51.28C92.2269 53.4987 94.6803 54.608 98.0083 54.608C99.9709 54.608 101.592 54.2453 102.872 53.52C104.152 52.752 105.326 51.664 106.392 50.256L107.416 51.024C106.35 53.584 104.707 55.5467 102.488 56.912C100.312 58.2347 97.7096 58.896 94.6803 58.896ZM126.125 58.896C122.968 58.896 120.195 58.2347 117.805 56.912C115.459 55.5893 113.624 53.712 112.301 51.28C111.021 48.848 110.381 45.9467 110.381 42.576C110.381 39.2053 111.064 36.304 112.429 33.872C113.837 31.44 115.715 29.584 118.061 28.304C120.451 26.9813 123.139 26.32 126.125 26.32C129.112 26.32 131.779 26.9813 134.125 28.304C136.515 29.584 138.392 31.44 139.757 33.872C141.165 36.2613 141.869 39.1627 141.869 42.576C141.869 45.9467 141.208 48.8693 139.885 51.344C138.605 53.776 136.792 55.6533 134.445 56.976C132.099 58.256 129.325 58.896 126.125 58.896ZM126.125 57.104C127.661 57.104 128.899 56.6987 129.837 55.888C130.819 55.0347 131.523 53.5627 131.949 51.472C132.376 49.3813 132.589 46.4587 132.589 42.704C132.589 38.9067 132.376 35.9627 131.949 33.872C131.523 31.7387 130.819 30.2667 129.837 29.456C128.899 28.6027 127.661 28.176 126.125 28.176C124.589 28.176 123.352 28.6027 122.413 29.456C121.475 30.2667 120.771 31.7387 120.301 33.872C119.875 35.9627 119.661 38.9067 119.661 42.704C119.661 46.4587 119.875 49.3813 120.301 51.472C120.771 53.5627 121.475 55.0347 122.413 55.888C123.352 56.6987 124.589 57.104 126.125 57.104ZM158.644 58.192L147.38 31.12C146.911 29.9253 146.079 29.1573 144.884 28.816L143.54 28.496V27.28H159.732V28.496L158.068 28.88C156.703 29.2213 156.298 30.096 156.852 31.504L163.572 49.36L169.844 31.632C170.058 30.9067 170.1 30.3307 169.972 29.904C169.887 29.4347 169.482 29.1147 168.756 28.944L166.9 28.496V27.28H176.628V28.496L174.516 29.008C173.279 29.3067 172.447 30.0747 172.02 31.312L162.356 58.192H158.644ZM192.688 26.32C195.376 26.32 197.68 26.8747 199.6 27.984C201.52 29.0933 202.992 30.6293 204.016 32.592C205.082 34.512 205.616 36.7307 205.616 39.248C205.616 39.8027 205.594 40.336 205.552 40.848C205.509 41.3173 205.424 41.7653 205.296 42.192H186.032C186.074 46.5867 186.885 49.744 188.464 51.664C190.085 53.584 192.432 54.544 195.504 54.544C197.637 54.544 199.365 54.2027 200.688 53.52C202.01 52.7947 203.226 51.792 204.336 50.512L205.36 51.472C204.08 53.8187 202.33 55.6533 200.112 56.976C197.936 58.256 195.333 58.896 192.304 58.896C189.274 58.896 186.608 58.256 184.304 56.976C182 55.696 180.186 53.8613 178.864 51.472C177.584 49.04 176.944 46.1387 176.944 42.768C176.944 39.2693 177.69 36.304 179.184 33.872C180.72 31.44 182.682 29.584 185.072 28.304C187.504 26.9813 190.042 26.32 192.688 26.32ZM192.368 28.176C191.13 28.176 190.042 28.5387 189.104 29.264C188.208 29.9467 187.482 31.184 186.928 32.976C186.416 34.7253 186.117 37.2 186.032 40.4H197.488C197.957 36.0907 197.786 32.976 196.976 31.056C196.165 29.136 194.629 28.176 192.368 28.176ZM208.875 58V56.784L209.835 56.464C210.689 56.2507 211.265 55.888 211.563 55.376C211.905 54.864 212.075 54.1813 212.075 53.328V34.576C212.033 33.6373 211.862 32.9333 211.563 32.464C211.265 31.952 210.689 31.6107 209.835 31.44L208.875 31.184V30.032L219.307 26.32L220.075 27.024L220.651 32.656V33.104C221.291 31.9093 222.102 30.8 223.083 29.776C224.065 28.752 225.131 27.92 226.283 27.28C227.435 26.64 228.587 26.32 229.739 26.32C231.361 26.32 232.577 26.7467 233.387 27.6C234.198 28.4533 234.603 29.5413 234.603 30.864C234.603 32.3147 234.198 33.424 233.387 34.192C232.577 34.9173 231.595 35.28 230.443 35.28C228.737 35.28 227.265 34.512 226.027 32.976L225.899 32.848C225.473 32.336 224.982 32.0587 224.427 32.016C223.915 31.9307 223.403 32.1867 222.891 32.784C222.465 33.2107 222.059 33.7227 221.675 34.32C221.334 34.8747 221.014 35.536 220.715 36.304V53.072C220.715 53.8827 220.886 54.5653 221.227 55.12C221.569 55.632 222.145 55.9947 222.955 56.208L224.875 56.784V58H208.875ZM272.766 59.088C268.628 59.088 264.894 58.2347 261.566 56.528C258.238 54.8213 255.593 52.304 253.63 48.976C251.71 45.648 250.75 41.5947 250.75 36.816C250.75 33.232 251.326 30.0533 252.478 27.28C253.673 24.5067 255.294 22.1813 257.342 20.304C259.433 18.384 261.822 16.9547 264.51 16.016C267.198 15.0347 270.057 14.544 273.086 14.544C275.433 14.544 277.63 14.8213 279.678 15.376C281.726 15.888 283.689 16.656 285.566 17.68L285.822 26.064H284.094L281.406 21.008C280.98 20.1547 280.51 19.3867 279.998 18.704C279.529 18.0213 278.91 17.5307 278.142 17.232C277.076 16.72 275.817 16.464 274.366 16.464C271.849 16.464 269.545 17.104 267.454 18.384C265.406 19.664 263.764 21.7973 262.526 24.784C261.289 27.728 260.67 31.76 260.67 36.88C260.67 41.9573 261.246 45.9893 262.398 48.976C263.593 51.9627 265.193 54.096 267.198 55.376C269.204 56.6133 271.465 57.232 273.982 57.232C275.134 57.232 276.073 57.1467 276.798 56.976C277.524 56.8053 278.249 56.5707 278.974 56.272C279.828 55.9307 280.489 55.44 280.958 54.8C281.428 54.1173 281.833 53.3493 282.174 52.496L284.606 46.672H286.334L286.078 55.888C284.244 56.912 282.217 57.7013 279.998 58.256C277.78 58.8107 275.369 59.088 272.766 59.088ZM289.441 58V56.784L290.401 56.528C291.809 56.0587 292.513 54.992 292.513 53.328C292.513 51.8773 292.513 50.4267 292.513 48.976C292.555 47.4827 292.577 46.0107 292.577 44.56V20.24C292.577 19.344 292.427 18.6827 292.129 18.256C291.83 17.7867 291.254 17.4453 290.401 17.232L289.441 16.976V15.76L300.641 13.072L301.473 13.648L301.217 22.672V53.328C301.259 54.1813 301.43 54.8853 301.729 55.44C302.07 55.952 302.646 56.3147 303.457 56.528L304.353 56.784V58H289.441ZM315.905 58.896C313.473 58.896 311.404 58.2133 309.697 56.848C308.033 55.44 307.201 53.4347 307.201 50.832C307.201 48.784 308.183 46.9067 310.145 45.2C312.151 43.4507 315.287 42.1707 319.553 41.36C320.279 41.1893 321.111 41.04 322.049 40.912C323.031 40.7413 323.991 40.5707 324.929 40.4V35.856C324.929 32.9547 324.567 30.9493 323.841 29.84C323.116 28.7307 321.964 28.176 320.385 28.176H320.193C319.212 28.176 318.423 28.496 317.825 29.136C317.271 29.7333 316.908 30.736 316.737 32.144L316.545 32.976C316.417 34.6827 315.969 35.9413 315.201 36.752C314.433 37.52 313.473 37.904 312.321 37.904C311.255 37.904 310.359 37.584 309.633 36.944C308.951 36.2613 308.609 35.3867 308.609 34.32C308.609 32.5707 309.207 31.0987 310.401 29.904C311.596 28.7093 313.175 27.8133 315.137 27.216C317.143 26.6187 319.297 26.32 321.601 26.32C325.399 26.32 328.3 27.2373 330.305 29.072C332.311 30.9067 333.313 33.8933 333.313 38.032V52.304C333.313 54.1387 334.188 55.056 335.937 55.056H337.409L338.049 55.76C337.281 56.7413 336.428 57.488 335.489 58C334.551 58.5547 333.271 58.832 331.649 58.832C329.815 58.832 328.343 58.4053 327.233 57.552C326.167 56.656 325.463 55.4827 325.121 54.032C323.756 55.4827 322.412 56.656 321.089 57.552C319.767 58.448 318.039 58.896 315.905 58.896ZM319.617 54.8C320.471 54.8 321.281 54.608 322.049 54.224C322.817 53.84 323.777 53.2 324.929 52.304V42.064C323.82 42.2347 322.689 42.448 321.537 42.704C319.703 43.1307 318.209 43.92 317.057 45.072C315.948 46.224 315.393 47.7813 315.393 49.744C315.393 51.4507 315.777 52.7307 316.545 53.584C317.356 54.3947 318.38 54.8 319.617 54.8ZM350.572 58.896C348.524 58.896 346.668 58.6613 345.004 58.192C343.383 57.7653 341.826 57.1467 340.332 56.336V48.784H342.06L343.98 52.432C344.791 54.0107 345.708 55.184 346.732 55.952C347.799 56.72 349.143 57.104 350.764 57.104C352.77 57.104 354.37 56.6773 355.564 55.824C356.759 54.928 357.356 53.7333 357.356 52.24C357.356 50.8747 356.908 49.7653 356.012 48.912C355.116 48.0587 353.516 47.2693 351.212 46.544L348.396 45.648C345.879 44.88 343.874 43.728 342.38 42.192C340.93 40.6133 340.204 38.6507 340.204 36.304C340.204 34.4693 340.695 32.8053 341.676 31.312C342.658 29.776 344.087 28.56 345.964 27.664C347.842 26.768 350.124 26.32 352.812 26.32C354.562 26.32 356.162 26.5333 357.612 26.96C359.106 27.344 360.556 27.8987 361.964 28.624L361.58 35.472H359.916L357.932 31.824C357.25 30.4587 356.546 29.52 355.82 29.008C355.138 28.4533 354.071 28.176 352.62 28.176C351.084 28.176 349.719 28.5813 348.524 29.392C347.372 30.16 346.796 31.248 346.796 32.656C346.796 33.9787 347.287 35.0667 348.268 35.92C349.25 36.7307 350.828 37.4987 353.004 38.224L355.756 39.056C358.871 40.0373 361.09 41.3387 362.412 42.96C363.735 44.5813 364.396 46.5227 364.396 48.784C364.396 51.8133 363.18 54.2667 360.748 56.144C358.359 57.9787 354.967 58.896 350.572 58.896ZM378.385 58.896C376.337 58.896 374.481 58.6613 372.817 58.192C371.195 57.7653 369.638 57.1467 368.145 56.336V48.784H369.873L371.793 52.432C372.603 54.0107 373.521 55.184 374.545 55.952C375.611 56.72 376.955 57.104 378.577 57.104C380.582 57.104 382.182 56.6773 383.377 55.824C384.571 54.928 385.169 53.7333 385.169 52.24C385.169 50.8747 384.721 49.7653 383.825 48.912C382.929 48.0587 381.329 47.2693 379.025 46.544L376.209 45.648C373.691 44.88 371.686 43.728 370.193 42.192C368.742 40.6133 368.017 38.6507 368.017 36.304C368.017 34.4693 368.507 32.8053 369.489 31.312C370.47 29.776 371.899 28.56 373.777 27.664C375.654 26.768 377.937 26.32 380.625 26.32C382.374 26.32 383.974 26.5333 385.425 26.96C386.918 27.344 388.369 27.8987 389.777 28.624L389.393 35.472H387.729L385.745 31.824C385.062 30.4587 384.358 29.52 383.633 29.008C382.95 28.4533 381.883 28.176 380.433 28.176C378.897 28.176 377.531 28.5813 376.337 29.392C375.185 30.16 374.609 31.248 374.609 32.656C374.609 33.9787 375.099 35.0667 376.081 35.92C377.062 36.7307 378.641 37.4987 380.817 38.224L383.569 39.056C386.683 40.0373 388.902 41.3387 390.225 42.96C391.547 44.5813 392.209 46.5227 392.209 48.784C392.209 51.8133 390.993 54.2667 388.561 56.144C386.171 57.9787 382.779 58.896 378.385 58.896ZM402.424 22.8C401.016 22.8 399.822 22.352 398.84 21.456C397.859 20.56 397.368 19.4293 397.368 18.064C397.368 16.656 397.859 15.5253 398.84 14.672C399.822 13.776 401.016 13.328 402.424 13.328C403.832 13.328 405.027 13.776 406.008 14.672C406.99 15.5253 407.48 16.656 407.48 18.064C407.48 19.4293 406.99 20.56 406.008 21.456C405.027 22.352 403.832 22.8 402.424 22.8ZM395.064 58V56.784L396.024 56.528C396.878 56.272 397.454 55.888 397.752 55.376C398.051 54.864 398.222 54.1813 398.264 53.328V41.552C398.264 40.2293 398.264 39.0133 398.264 37.904C398.264 36.752 398.243 35.5787 398.2 34.384C398.2 33.5307 398.03 32.8693 397.688 32.4C397.39 31.888 396.814 31.5467 395.96 31.376L395.064 31.184V30.032L406.264 26.32L407.032 27.024L406.84 36.112V53.392C406.84 54.2453 406.99 54.928 407.288 55.44C407.63 55.952 408.206 56.336 409.016 56.592L409.72 56.784V58H395.064ZM428.243 58.896C425.341 58.896 422.717 58.2773 420.371 57.04C418.024 55.76 416.168 53.9253 414.803 51.536C413.48 49.104 412.819 46.16 412.819 42.704C412.819 39.248 413.565 36.304 415.059 33.872C416.552 31.44 418.536 29.584 421.011 28.304C423.528 26.9813 426.28 26.32 429.267 26.32C431.699 26.32 433.768 26.7253 435.475 27.536C437.181 28.3467 438.483 29.392 439.379 30.672C440.275 31.9093 440.723 33.232 440.723 34.64C440.723 35.8347 440.36 36.752 439.635 37.392C438.952 38.032 438.056 38.352 436.947 38.352C435.752 38.352 434.771 37.9253 434.003 37.072C433.277 36.2187 432.851 35.1307 432.723 33.808C432.68 32.9547 432.68 32.2293 432.723 31.632C432.808 31.0347 432.808 30.4587 432.723 29.904C432.552 29.1787 432.253 28.688 431.827 28.432C431.443 28.176 430.888 28.048 430.163 28.048C427.475 28.048 425.405 29.136 423.955 31.312C422.547 33.4453 421.843 36.9227 421.843 41.744C421.843 45.8827 422.632 49.0613 424.211 51.28C425.789 53.4987 428.243 54.608 431.571 54.608C433.533 54.608 435.155 54.2453 436.435 53.52C437.715 52.752 438.888 51.664 439.955 50.256L440.979 51.024C439.912 53.584 438.269 55.5467 436.051 56.912C433.875 58.2347 431.272 58.896 428.243 58.896ZM452.968 58.896C450.536 58.896 448.466 58.2133 446.76 56.848C445.096 55.44 444.264 53.4347 444.264 50.832C444.264 48.784 445.245 46.9067 447.208 45.2C449.213 43.4507 452.349 42.1707 456.616 41.36C457.341 41.1893 458.173 41.04 459.112 40.912C460.093 40.7413 461.053 40.5707 461.992 40.4V35.856C461.992 32.9547 461.629 30.9493 460.904 29.84C460.178 28.7307 459.026 28.176 457.448 28.176H457.256C456.274 28.176 455.485 28.496 454.888 29.136C454.333 29.7333 453.97 30.736 453.8 32.144L453.608 32.976C453.48 34.6827 453.032 35.9413 452.264 36.752C451.496 37.52 450.536 37.904 449.384 37.904C448.317 37.904 447.421 37.584 446.696 36.944C446.013 36.2613 445.672 35.3867 445.672 34.32C445.672 32.5707 446.269 31.0987 447.464 29.904C448.658 28.7093 450.237 27.8133 452.2 27.216C454.205 26.6187 456.36 26.32 458.664 26.32C462.461 26.32 465.362 27.2373 467.368 29.072C469.373 30.9067 470.376 33.8933 470.376 38.032V52.304C470.376 54.1387 471.25 55.056 473 55.056H474.472L475.112 55.76C474.344 56.7413 473.49 57.488 472.552 58C471.613 58.5547 470.333 58.832 468.712 58.832C466.877 58.832 465.405 58.4053 464.296 57.552C463.229 56.656 462.525 55.4827 462.184 54.032C460.818 55.4827 459.474 56.656 458.152 57.552C456.829 58.448 455.101 58.896 452.968 58.896ZM456.68 54.8C457.533 54.8 458.344 54.608 459.112 54.224C459.88 53.84 460.84 53.2 461.992 52.304V42.064C460.882 42.2347 459.752 42.448 458.6 42.704C456.765 43.1307 455.272 43.92 454.12 45.072C453.01 46.224 452.456 47.7813 452.456 49.744C452.456 51.4507 452.84 52.7307 453.608 53.584C454.418 54.3947 455.442 54.8 456.68 54.8ZM476.691 58V56.784L477.651 56.528C479.059 56.0587 479.763 54.992 479.763 53.328C479.763 51.8773 479.763 50.4267 479.763 48.976C479.805 47.4827 479.827 46.0107 479.827 44.56V20.24C479.827 19.344 479.677 18.6827 479.379 18.256C479.08 17.7867 478.504 17.4453 477.651 17.232L476.691 16.976V15.76L487.891 13.072L488.723 13.648L488.467 22.672V53.328C488.509 54.1813 488.68 54.8853 488.979 55.44C489.32 55.952 489.896 56.3147 490.707 56.528L491.603 56.784V58H476.691Z" fill="black"/>
</g>
<defs>
<clipPath id="clip0_518_8">
<rect width="494" height="72" fill="white"/>
</clipPath>
</defs>
</svg>
